PathFileType	4	(X/Y/Z)	C:\Users\Basilio\Documents\Thesis Gigler\squatting_fais\c3dfiles\044\SLS_front_pre5\markers_experimental.trc
DataRate	CameraRate	NumFrames	NumMarkers	Units	OrigDataRate	OrigDataStartFrame	OrigNumFrames
200.000000	200.000000	4	60	mm	200.000000	356	1427
Frame#	Time	FHD			LBHD			RBHD			C7			T10			LSHO			LUUPA			LMUPA			LDUPA			LLEP			LMEP			LUL			LRFIN			RSHO			RUPA1			RMUPA			RDUPA			RLEP			RMEP			RUL			RUFIN			LASI			RASI			USACR			LSACR			RSACR			LTHI1			LTHI2			LTHI3			LTHI4			LLFC			LMFC			LTIB1			LTIB2			LTIB3			LTIB4			LLMAL			LMMAL			LHEE			LMT1			LMT2			LMT5			RTHI			RTHI2			RTHI3			RTHI4			RLFC			RMFC			RTIB1			RTIB2			RTIB3			RTIB4			RLMAL			RHEE			RMT1			RMT2			RMT5			CLAV			RMMAL			LRAD			
		X1	Y1	Z1	X2	Y2	Z2	X3	Y3	Z3	X4	Y4	Z4	X5	Y5	Z5	X6	Y6	Z6	X7	Y7	Z7	X8	Y8	Z8	X9	Y9	Z9	X10	Y10	Z10	X11	Y11	Z11	X12	Y12	Z12	X13	Y13	Z13	X14	Y14	Z14	X15	Y15	Z15	X16	Y16	Z16	X17	Y17	Z17	X18	Y18	Z18	X19	Y19	Z19	X20	Y20	Z20	X21	Y21	Z21	X22	Y22	Z22	X23	Y23	Z23	X24	Y24	Z24	X25	Y25	Z25	X26	Y26	Z26	X27	Y27	Z27	X28	Y28	Z28	X29	Y29	Z29	X30	Y30	Z30	X31	Y31	Z31	X32	Y32	Z32	X33	Y33	Z33	X34	Y34	Z34	X35	Y35	Z35	X36	Y36	Z36	X37	Y37	Z37	X38	Y38	Z38	X39	Y39	Z39	X40	Y40	Z40	X41	Y41	Z41	X42	Y42	Z42	X43	Y43	Z43	X44	Y44	Z44	X45	Y45	Z45	X46	Y46	Z46	X47	Y47	Z47	X48	Y48	Z48	X49	Y49	Z49	X50	Y50	Z50	X51	Y51	Z51	X52	Y52	Z52	X53	Y53	Z53	X54	Y54	Z54	X55	Y55	Z55	X56	Y56	Z56	X57	Y57	Z57	X58	Y58	Z58	X59	Y59	Z59	X60	Y60	Z60	

357	1.78	-252.2382354736329	1797.58447265625	-985.4149169921877	-386.4546203613282	1756.862182617188	-1056.731201171875	-422.3632202148439	1739.441528320313	-894.8325805664065	-436.9764099121095	1564.792724609375	-983.167175292969	-434.3409118652345	1260.446533203125	-971.4554443359377	-343.6286621093751	1588.025024414063	-1129.773071289063	-178.6503601074219	1556.3759765625	-1226.564575195313	-151.0176849365235	1565.857788085938	-1184.785400390625	-109.2846069335938	1548.786010742188	-1227.6083984375	-51.12647628784181	1544.659912109375	-1215.672485351563	-65.49868011474611	1468.042602539063	-1204.292602539063	198.6407165527344	1541.629638671875	-1091.545166015625	211.4282836914063	1554.340942382813	-989.526794433594	-346.4449157714844	1573.63525390625	-824.4450683593752	-190.0188598632813	1539.089111328125	-724.8817138671876	-159.6562652587891	1553.878784179688	-763.1292114257814	-120.4647369384766	1535.881225585938	-721.5030517578126	-59.15846252441408	1535.757690429688	-730.8225097656251	-65.0757522583008	1455.589477539063	-743.4587402343751	193.2122039794922	1539.111328125	-857.6932373046877	206.9029388427735	1525.560180664063	-972.0520629882815	-255.3276672363282	1065.293701171875	-1066.79443359375	-251.7472076416016	1059.978271484375	-849.6384887695315	-423.1668395996095	1112.61279296875	-954.621276855469	-428.9746093750001	1079.467407226563	-979.7338867187502	-425.7278747558595	1083.701416015625	-922.8585205078127	-322.1997375488282	818.1197509765627	-1131.417358398438	-278.7896423339844	745.3997192382814	-1128.943725585938	-232.6170806884766	754.9449462890626	-1122.862060546875	-297.5744323730469	690.4232788085939	-1114.059692382813	-259.5306091308594	536.3034057617189	-1096.69140625	-256.1151733398438	535.7259521484376	-974.5284423828127	-253.5659942626954	363.2288818359376	-1013.424499511719	-279.4986267089844	314.9068298339844	-1083.459106445313	-252.1621856689454	313.0903320312501	-1044.959350585938	-278.3363647460938	239.5017395019532	-1012.728210449219	-340.1199645996094	128.9361724853516	-1057.328002929688	-323.3602905273438	136.6223449707032	-971.955749511719	-407.5019836425782	111.4742431640625	-1008.452880859375	-202.0905151367188	62.01800537109376	-984.485290527344	-200.7043457031251	64.54343414306642	-1031.24267578125	-238.2151641845704	51.5519142150879	-1077.749633789063	-293.4177246093751	787.1553344726565	-752.3853759765626	-240.8174285888672	744.1004028320314	-749.9938354492189	-210.4943389892579	752.7078857421876	-760.7166748046876	-248.1657104492188	660.6354980468751	-759.8461303710939	-232.3987426757813	554.0250244140626	-756.3815917968751	-244.1862487792969	535.3133544921876	-876.2861328125002	-206.2854309082032	419.7339172363282	-770.7356567382815	-284.2449340820313	367.6867065429688	-712.9082641601564	-245.8141479492188	351.8429565429688	-730.9948730468751	-245.9270782470704	297.5825195312501	-750.6766967773439	-335.1621704101563	162.7607116699219	-713.3181152343751	-402.0665283203126	137.3616638183594	-753.1982421875001	-206.1023406982422	65.46954345703126	-779.248474121094	-198.1165313720704	63.58960342407228	-742.7702026367189	-238.0108947753907	57.38171005249025	-689.6923828125001	-294.0650024414063	1536.009521484375	-985.629577636719	-319.4253234863282	157.5599060058594	-796.5169067382815	nan	nan	nan	
358	1.785	-252.0121154785157	1797.560424804688	-986.212097167969	-386.1419677734376	1756.849609375	-1057.660034179688	-422.1683654785157	1739.673583984375	-895.7304687500002	-436.6343078613282	1564.22802734375	-983.8030395507815	-434.554901123047	1260.473999023438	-972.110534667969	-343.8262023925782	1587.899658203125	-1130.66552734375	-178.6084289550782	1556.149291992188	-1227.297607421875	-150.9564971923828	1565.798583984375	-1185.51318359375	-108.9910125732422	1548.68896484375	-1228.4853515625	-51.48944473266603	1544.891235351563	-1216.475952148438	-65.1687698364258	1467.805053710938	-1205.270263671875	198.8013153076172	1541.263305664063	-1092.101806640625	211.5502319335938	1554.034545898438	-990.293640136719	-346.3270263671876	1573.595336914063	-825.2889404296877	-189.9940032958985	1539.1669921875	-725.7857666015626	-159.5769653320313	1553.7060546875	-763.7283935546876	-120.3420791625977	1535.543212890625	-721.9150390625001	-58.98061752319337	1535.360717773438	-731.2550048828126	-65.14239501953126	1455.4541015625	-744.1093750000001	193.1746215820313	1538.811279296875	-858.4328613281252	206.8360137939454	1525.302001953125	-972.8221435546877	-257.4446411132813	1065.099731445313	-1066.236083984375	-252.4734191894532	1059.880004882813	-850.1435546875002	-423.6347045898439	1112.5712890625	-955.2125244140627	-429.4701538085939	1079.400024414063	-980.3692626953127	-426.2654724121095	1083.745727539063	-923.6172485351565	-322.6061096191407	817.944763183594	-1131.769165039063	-279.0235900878907	745.2448120117189	-1129.352294921875	-232.2147369384766	754.4944458007814	-1123.249145507813	-297.7194519042969	690.3958740234376	-1114.45263671875	-259.7504272460938	536.0997314453126	-1096.910400390625	-256.4687805175782	535.7955932617189	-974.9135742187502	-253.8358764648438	363.2200927734376	-1013.486450195313	-279.5743103027344	314.7901306152344	-1083.62353515625	-252.2401885986329	313.0815429687501	-1045.0693359375	-278.6081237792969	239.5925445556641	-1012.855224609375	-340.1578979492188	128.9126586914063	-1057.366821289063	-323.3689575195313	136.5909423828125	-971.9722290039065	-407.4822998046876	111.4518966674805	-1008.431701660156	-201.8815460205079	61.68422317504884	-984.4801025390627	-200.7039337158204	64.49980926513673	-1031.22802734375	-238.1641540527344	51.66999435424806	-1077.739990234375	-293.0165100097657	787.1934814453127	-753.0587158203126	-240.0636749267579	744.2895507812501	-750.8023681640626	-209.8851013183594	752.9679565429689	-761.2512207031251	-246.9410705566407	660.4115600585939	-760.3703002929689	-231.1539764404297	554.3870239257814	-757.1601562500001	-242.9018554687501	535.4927978515626	-877.2131347656252	-205.3861389160157	419.9651794433595	-771.651794433594	-283.3136901855469	368.0583801269532	-713.8877563476564	-244.7427673339844	352.2305908203126	-731.7221069335939	-245.1908111572266	297.7828063964844	-751.5309448242189	-334.7091369628907	163.5921173095703	-714.0781860351564	-401.7377014160157	138.0805816650391	-754.4612426757814	-205.6124725341797	65.70755767822267	-779.6472778320315	-197.8654174804688	63.9423065185547	-743.2487792968751	-237.8652648925782	58.18400192260744	-690.0428466796876	-294.0815429687501	1535.905883789063	-986.4151611328127	-318.9252319335938	158.0592803955078	-797.4544067382815	nan	nan	nan	
359	1.79	-251.6626586914063	1797.597534179688	-986.9459228515627	-385.8925781250001	1756.858154296875	-1058.518676757813	-421.8896484375001	1739.098754882813	-896.1582641601565	-436.4866333007814	1564.264038085938	-984.6111450195315	-434.8478088378907	1260.560180664063	-973.018493652344	-343.5891113281251	1587.849853515625	-1131.257446289063	-178.2745971679688	1555.854858398438	-1228.04150390625	-150.9529418945313	1565.5927734375	-1186.249633789063	-108.8694534301758	1548.457153320313	-1229.117309570313	-51.39159011840822	1544.630004882813	-1217.118408203125	-65.14479827880861	1467.637939453125	-1206.067138671875	198.9340972900391	1541.029907226563	-1092.81640625	211.4715270996094	1554.656494140625	-991.254577636719	-346.2064514160157	1573.676513671875	-826.0714111328127	-189.9679718017578	1539.007568359375	-726.3923950195314	-159.5348510742188	1553.58154296875	-764.5383911132814	-120.4712905883789	1535.364379882813	-722.4765625000001	-58.92397308349611	1535.26953125	-732.2540283203126	-65.22510528564455	1455.298828125	-744.9187011718751	193.2585144042969	1538.561157226563	-859.2734985351565	206.9531555175782	1525.054565429688	-973.5976562500002	-256.6197509765626	1065.461059570313	-1067.877807617188	-252.7986755371094	1059.827392578125	-850.735046386719	-424.1369018554689	1112.697631835938	-955.7814941406252	-430.053680419922	1079.4794921875	-980.950378417969	-426.4803466796876	1083.58544921875	-924.260437011719	-322.9246826171876	817.8659667968752	-1132.29345703125	-279.3872375488282	745.1220092773439	-1129.728393554688	-232.6695098876954	754.2665405273439	-1123.620971679688	-297.9130554199219	690.3031616210939	-1114.874145507813	-260.0217590332032	536.0597534179689	-1097.141479492188	-256.8847961425782	535.9576416015626	-975.2684326171877	-254.1438140869141	363.2262573242188	-1013.623168945313	-279.6182861328126	314.8073120117188	-1083.771118164063	-252.312973022461	313.1637268066407	-1045.168579101563	-278.6628723144532	239.6103057861329	-1012.913513183594	-340.0135803222657	128.819076538086	-1057.370849609375	-323.3841552734376	136.566390991211	-971.9766235351565	-407.1320800781251	110.7734985351563	-1008.157592773438	-202.0659637451172	61.94277572631837	-984.3865966796877	-200.7590332031251	64.50532531738283	-1031.180053710938	-238.2238464355469	51.69409179687501	-1077.733154296875	-292.3202819824219	786.926940917969	-753.9176025390626	-239.3128814697266	744.5552978515626	-752.0141601562501	-209.3479003906251	753.2596435546876	-762.0599365234376	-246.0896301269532	660.9458007812501	-761.1886596679689	-230.0991821289063	554.6834716796876	-758.0048217773439	-241.8492584228516	535.8027343750001	-878.025817871094	-204.5449523925782	420.1705017089845	-772.3482666015627	-282.8114318847657	368.5764160156251	-714.7086181640626	-244.0816650390626	352.4747924804688	-732.7698974609376	-244.3920898437501	298.1013793945313	-752.6060791015626	-334.5898437500001	164.2758941650391	-715.0233154296876	-401.2797851562501	138.8238525390625	-755.7680053710939	-205.2054595947266	66.31134033203126	-779.9522094726565	-197.6886901855469	64.23164367675783	-743.6025390625001	-237.5061187744141	58.53491210937501	-690.6828002929689	-294.0264892578126	1535.804565429688	-987.175964355469	-318.3197631835938	158.5714569091797	-798.326110839844	nan	nan	nan	
360	1.795	-251.2938995361329	1797.670776367188	-987.7202148437502	-385.6482238769532	1756.847900390625	-1059.223266601563	-421.4918823242189	1739.594604492188	-897.3543090820315	-436.4521484375001	1564.443725585938	-985.4168701171877	-435.025115966797	1260.741455078125	-973.7172851562502	-343.6483764648438	1587.670288085938	-1132.1328125	-178.0013885498047	1555.9375	-1228.8505859375	-150.6977081298828	1565.269165039063	-1187.026245117188	-108.7625961303711	1548.247192382813	-1229.78125	-51.41944885253908	1544.380859375	-1217.669555664063	-65.25734710693361	1467.978515625	-1206.413330078125	199.1495361328126	1540.559448242188	-1093.52880859375	211.4733428955079	1554.281005859375	-991.8843383789065	-346.2424926757813	1573.790405273438	-826.9329833984377	-189.9304809570313	1538.62939453125	-727.2966308593751	-159.5435028076172	1553.632446289063	-765.4724121093751	-120.5270080566407	1535.337158203125	-723.3059692382814	-59.02319335937501	1535.272705078125	-732.9727783203126	-65.28488159179689	1455.08349609375	-745.5349731445314	193.2571716308594	1538.347290039063	-859.927673339844	206.8067169189454	1525.342407226563	-974.3420410156252	-258.6462707519532	1064.51708984375	-1067.501098632813	-253.3299102783204	1059.847534179688	-851.4504394531252	-424.6491088867189	1112.78857421875	-956.5232543945315	-428.0065307617189	1079.064697265625	-981.916198730469	-428.914520263672	1085.743408203125	-924.829772949219	-323.1757812500001	817.6990356445315	-1132.970581054688	-279.7026672363282	745.0814208984376	-1130.172485351563	-232.8589477539063	754.2269287109376	-1124.000732421875	-298.1217346191407	690.1535034179689	-1115.299194335938	-260.1712036132813	536.0418090820314	-1097.34375	-257.1703186035157	535.8760986328126	-975.4916992187502	-254.6705780029297	363.1033020019532	-1014.224060058594	-279.5842590332032	314.7369995117188	-1083.887084960938	-252.3533630371094	313.2023315429688	-1045.281616210938	-278.6920471191407	239.6293487548829	-1012.9580078125	-340.1207275390626	128.8075103759766	-1057.431640625	-323.4452514648438	136.5356597900391	-972.0000000000002	-407.6401672363282	111.6980667114258	-1008.354919433594	-202.0504455566407	61.92625427246095	-984.3496704101565	-200.7180938720704	64.54689788818361	-1031.149658203125	-238.1757354736329	51.6639747619629	-1077.758422851563	-291.8607788085938	787.0070800781252	-754.5867309570314	-238.9623565673829	744.7877197265626	-752.4686279296876	-208.7522277832032	753.3902587890626	-762.9440307617189	-245.0155487060547	660.7257690429689	-761.7762451171876	-229.1699829101563	554.9337768554689	-758.7885131835939	-240.5816040039063	536.2227172851564	-878.795349121094	-203.6291809082032	420.2983398437501	-773.1854248046877	-282.2526245117188	368.9900207519532	-715.7300415039064	-243.6693878173829	353.0215148925782	-733.4818725585939	-243.841781616211	298.4239807128907	-753.3557128906251	-334.2045593261719	164.5977783203125	-716.2578735351564	-400.9789123535157	139.3078918457032	-756.9449462890626	-204.4828643798829	66.78491973876955	-780.265075683594	-197.2227172851563	64.6201629638672	-743.9230346679689	-237.410385131836	58.78950119018556	-691.4539184570314	-293.8568725585938	1535.686889648438	-987.9807128906252	-317.8657836914063	158.908187866211	-799.3719482421877	nan	nan	nan	
